<svg version="1" xmlns="http://www.w3.org/2000/svg" width="682.667" height="682.667" viewBox="0 0 512.000000 512.000000"><path d="M275.6 39.5l-31.9 18.3-3.1-1.9c-3.8-2.3-11.3-2.5-14.3-.4-5.3 3.7-6.3 6.6-9.8 29.7-1.9 12.3-4 24.2-4.6 26.5-1 3.7-.9 4.6 1.2 8.3 3.8 6.7 7.8 8.3 31.9 12.5 5.2.9 14 2.6 19.4 3.6 5.4 1.1 11.2 1.7 12.7 1.4 5.7-1.3 10.3-9.1 9.6-16.4-.2-2.6 5.1-6.8 15.6-12.5l5.3-2.8 34 19.5c18.6 10.7 41.1 23.6 49.9 28.7 8.8 5.1 22.8 13.1 31.1 17.9 8.4 4.7 15 8.8 14.8 9-.2.2-13.1 7.7-28.6 16.6l-28.3 16.3v84.4l22.5 13c12.4 7.2 25 14.4 28 16 3 1.7 5.8 3.3 6.2 3.7.4.3-9.9 6.8-23 14.2-13 7.5-39.9 23-59.7 34.4-19.8 11.4-38.5 22.1-41.6 23.8l-5.6 3.1-19.4-11.1c-24.5-14-23.6-13.5-25.9-12.8-4.5 1.4-4.4 3.8 1 20.1 7.6 22.7 6.9 24.6-12.5 31.9-6.6 2.5-12.5 4.5-13.2 4.5-1.9 0-4.3 3-4.3 5.4 0 3.5 1.8 4.9 24 17.3 1.9 1.1 13.8 8 26.5 15.3 12.6 7.3 23.5 13.3 24 13.3.6 0 8.5-4.3 17.5-9.5 9.1-5.2 27.1-15.6 40-23 12.9-7.5 35.4-20.4 50-28.8 14.6-8.4 41.8-24 60.5-34.7 18.7-10.7 34.5-20.2 35.2-21 .9-1.2 1.2-11.9 1.2-42.5l.1-40.9-3.3-2c-1.7-1.1-14.8-8.6-28.9-16.7-14.2-8.1-25.8-14.9-25.7-15.2 0-.3 13.1-7.9 29.1-17l29.1-16.5-.7-14c-.3-7.7-.6-26.7-.6-42.2v-28.1l-20.7-12c-11.5-6.6-22.4-12.8-24.3-13.9-1.9-1.1-18.6-10.7-37-21.3-18.4-10.6-47.2-27.1-64-36.7-16.8-9.7-35.7-20.6-42.1-24.3-6.4-3.7-12.5-7.2-13.5-7.8-1.6-.9-7.3 2-33.8 17.3z"/><path d="M120.3 140.8c-18.2 21.8-51.7 61.7-74.3 88.7C-1.3 285.7-.6 284.8.6 285.9c4.8 4.2 35.5 29.4 88.9 73.1 60.9 49.7 64.1 52.2 66.2 50.9 1.2-.8 17.9-14.2 37-29.8 19.1-15.7 52.9-43.3 75-61.4l40.3-32.9-7.3-8.8C280.2 251.9 154.4 101.2 154 101.1c-.3 0-15.4 17.8-33.7 39.7zm45.2 29.7c11.6 4.7 17.5 19.6 13 32.5-1.5 4.2-1.5 4.3 1.9 8.9 6.4 8.7 36.7 44.6 39.2 46.5 2.4 1.8 2.6 1.8 7.2 0 5.4-2.1 13.1-2.3 18.4-.5 5.6 1.9 11.5 8.4 13.3 14.6 3.5 12-4.1 25.2-16.5 28.5-5.5 1.5-10.5.7-17.5-2.7-5.2-2.6-5.6-2.6-8.7-1.1-4.5 2.2-34.6 23.3-38.2 26.8l-2.8 2.8 1.7 5.2c3.7 11.1 0 21.3-9.8 27.4-9.1 5.6-19.5 4.4-27.2-3.2-7-6.9-8.2-14.5-4.3-26.4 1.2-3.7 2-7 1.7-7.2-.2-.2-11.3-6.3-24.7-13.6l-24.3-13.2-6.8 3.1c-11.4 5.2-19.9 3.6-27.8-5.3-4.3-4.8-5.3-7.9-5.3-15.5.1-8.6 5.5-16.3 14-19.9 3.5-1.4 14.7-1.3 18.1.2 2.2 1 11.5-7.1 49.3-42.5l6-5.6-2.4-5.4c-5.7-12.9-1.2-27.4 10.5-33.7 5.7-3 15.5-3.4 22-.7z"/><path d="M162.9 220.8l-5.4 3.8.4 45.4c.2 25 .7 46.5 1 47.8.6 2.1 1.9 1.4 21.6-11.1 11.6-7.3 23.8-15.2 27.3-17.5 6.2-4.3 6.2-4.3 6.2-9.1 0-2.7.3-6.1.6-7.7.5-2.6-1.1-4.8-14.6-20.9-17.4-20.6-29.8-34.5-30.9-34.5-.4 0-3.2 1.7-6.2 3.8zM135.5 224.2c-9.9 8.9-28.6 25.9-37.9 34.5l-7.8 7.4 1.6 5.8c.9 3.1 1.6 7.8 1.6 10.4v4.6l9.8 6.4c10.7 7 37.1 22.8 41.5 24.8 1.5.7 3 .9 3.5.5.4-.4.8-21.7 1-47.3l.3-46.6-2.3-3.3c-1.3-1.9-2.8-3.4-3.3-3.4-.6 0-4.2 2.8-8 6.2z"/></svg>